<svg width="48" height="47" viewBox="0 0 48 47" fill="none" xmlns="http://www.w3.org/2000/svg">
<path d="M34.6286 24.2286C32.8381 22.6286 31.1333 21.0667 29.5143 19.5429C27.8952 18.019 26.4762 16.5333 25.2571 15.0857C24.0381 13.6381 23.0667 12.2381 22.3429 10.8857C21.619 9.53333 21.2571 8.22857 21.2571 6.97143C21.2571 4.99048 21.9238 3.33333 23.2571 2C24.5905 0.666667 26.2476 0 28.2286 0C29.3714 0 30.5048 0.314285 31.6286 0.942857C32.7524 1.57143 33.7524 2.41905 34.6286 3.48571C35.5048 2.41905 36.5048 1.57143 37.6286 0.942857C38.7524 0.314285 39.8857 0 41.0286 0C43.0095 0 44.6667 0.666667 46 2C47.3333 3.33333 48 4.99048 48 6.97143C48 8.22857 47.6381 9.53333 46.9143 10.8857C46.1905 12.2381 45.219 13.6381 44 15.0857C42.781 16.5333 41.3619 18.019 39.7429 19.5429C38.1238 21.0667 36.419 22.6286 34.6286 24.2286ZM30.0571 46.8571L12.2857 41.7714V22.5143H17.6571L32.2286 28C33.2571 28.381 34.1238 29 34.8286 29.8571C35.5333 30.7143 35.8857 31.9429 35.8857 33.5429H32.2286C30.3619 33.5429 29 33.4857 28.1429 33.3714C27.2857 33.2571 26.381 33.0476 25.4286 32.7429L21.2571 31.3714L20.6857 32.9714L24.9714 34.4571C25.8476 34.7619 26.8286 34.9714 27.9143 35.0857C29 35.2 30.1143 35.2571 31.2571 35.2571H42.4C44.5714 35.2571 46.0476 35.6762 46.8286 36.5143C47.6095 37.3524 48 38.4762 48 39.8857V41.3714L30.0571 46.8571ZM0 45.0286V22.5143H8.8V45.0286H0Z" fill="#F4323E"/>
</svg>
