<svg width="93" height="93" viewBox="0 0 93 93" fill="none" xmlns="http://www.w3.org/2000/svg">
<path d="M32.5501 24.025C32.9572 23.7197 33.4204 23.4975 33.9134 23.3712C34.4063 23.2449 34.9193 23.217 35.4231 23.2889C35.9269 23.3609 36.4115 23.5314 36.8494 23.7907C37.2872 24.0499 37.6698 24.3929 37.9751 24.8C38.2804 25.2071 38.5026 25.6703 38.6289 26.1633C38.7551 26.6563 38.7831 27.1693 38.7111 27.673C38.6392 28.1768 38.4687 28.6614 38.2094 29.0993C37.9502 29.5372 37.6072 29.9197 37.2001 30.225C31.1396 34.7704 27.6676 39.1917 25.6797 43.0512C28.4091 42.3486 31.2897 42.5138 33.9209 43.5238C36.5521 44.5338 38.8033 46.3385 40.3616 48.6869C41.9199 51.0353 42.7079 53.8109 42.616 56.6278C42.5241 59.4448 41.5569 62.1631 39.8488 64.4049C38.1407 66.6468 35.7767 68.3009 33.0852 69.1372C30.3937 69.9735 27.5086 69.9506 24.8307 69.0716C22.1529 68.1925 19.8154 66.5011 18.1432 64.2324C16.4711 61.9636 15.5472 59.2303 15.5001 56.4122C15.0036 51.6535 15.6794 46.8455 17.4686 42.408C19.782 36.5723 24.3041 30.2095 32.5501 24.025ZM67.4251 24.025C67.8322 23.7197 68.2954 23.4975 68.7884 23.3712C69.2813 23.2449 69.7943 23.217 70.2981 23.2889C70.8019 23.3609 71.2865 23.5314 71.7244 23.7907C72.1622 24.0499 72.5448 24.3929 72.8501 24.8C73.1554 25.2071 73.3776 25.6703 73.5039 26.1633C73.6301 26.6563 73.6581 27.1693 73.5861 27.673C73.5142 28.1768 73.3437 28.6614 73.0844 29.0993C72.8252 29.5372 72.4822 29.9197 72.0751 30.225C66.0146 34.7704 62.5426 39.1917 60.5547 43.0512C63.2841 42.3486 66.1647 42.5138 68.7959 43.5238C71.4271 44.5338 73.6783 46.3385 75.2366 48.6869C76.7949 51.0353 77.5829 53.8109 77.491 56.6278C77.3991 59.4448 76.4319 62.1631 74.7238 64.4049C73.0157 66.6468 70.6517 68.3009 67.9602 69.1372C65.2687 69.9735 62.3836 69.9506 59.7057 69.0716C57.0279 68.1925 54.6904 66.5011 53.0182 64.2324C51.3461 61.9636 50.4222 59.2303 50.3751 56.4122C49.8786 51.6535 50.5544 46.8455 52.3436 42.408C54.6608 36.5723 59.1791 30.2095 67.4251 24.025Z" fill="#F4A04A" fill-opacity="0.61"/>
</svg>
