<svg width="48" height="63" viewBox="0 0 48 63" fill="none" xmlns="http://www.w3.org/2000/svg">
<path d="M4.5 63C3.25 63 2.1875 62.5625 1.3125 61.6875C0.4375 60.8125 0 59.75 0 58.5V25.95C0 24.7 0.4375 23.6375 1.3125 22.7625C2.1875 21.8875 3.25 21.45 4.5 21.45H9.75V14.25C9.75 10.3 11.1375 6.9375 13.9125 4.1625C16.6875 1.3875 20.05 0 24 0C27.95 0 31.3125 1.3875 34.0875 4.1625C36.8625 6.9375 38.25 10.3 38.25 14.25V21.45H43.5C44.75 21.45 45.8125 21.8875 46.6875 22.7625C47.5625 23.6375 48 24.7 48 25.95V58.5C48 59.75 47.5625 60.8125 46.6875 61.6875C45.8125 62.5625 44.75 63 43.5 63H4.5ZM24 48C25.6 48 26.9625 47.45 28.0875 46.35C29.2125 45.25 29.775 43.925 29.775 42.375C29.775 40.875 29.2125 39.5125 28.0875 38.2875C26.9625 37.0625 25.6 36.45 24 36.45C22.4 36.45 21.0375 37.0625 19.9125 38.2875C18.7875 39.5125 18.225 40.875 18.225 42.375C18.225 43.925 18.7875 45.25 19.9125 46.35C21.0375 47.45 22.4 48 24 48ZM14.25 21.45H33.75V14.25C33.75 11.55 32.8 9.25 30.9 7.35C29 5.45 26.7 4.5 24 4.5C21.3 4.5 19 5.45 17.1 7.35C15.2 9.25 14.25 11.55 14.25 14.25V21.45Z" fill="black"/>
</svg>
