<svg width="48" height="69" viewBox="0 0 48 69" fill="none" xmlns="http://www.w3.org/2000/svg">
<path d="M5.14286 65.1429C3.71429 65.1429 2.5 64.6429 1.5 63.6429C0.5 62.6429 0 61.4286 0 60V19.7143C0 18.0571 0.585714 16.6429 1.75714 15.4714C2.92857 14.3 4.34286 13.7143 6 13.7143H13.7143V2.57143C13.7143 1.77143 14.0714 1.14286 14.7857 0.685714C15.5 0.228572 16.2857 0 17.1429 0H30.8571C31.7143 0 32.5 0.228572 33.2143 0.685714C33.9286 1.14286 34.2857 1.77143 34.2857 2.57143V13.7143H42.8571C44.2857 13.7143 45.5 14.2143 46.5 15.2143C47.5 16.2143 48 17.4286 48 18.8571V60C48 61.4286 47.5 62.6429 46.5 63.6429C45.5 64.6429 44.2857 65.1429 42.8571 65.1429C42.8571 66.1143 42.5286 66.9286 41.8714 67.5857C41.2143 68.2429 40.4 68.5714 39.4286 68.5714C38.4571 68.5714 37.6429 68.2429 36.9857 67.5857C36.3286 66.9286 36 66.1143 36 65.1429H12C12 66.1143 11.6714 66.9286 11.0143 67.5857C10.3571 68.2429 9.54286 68.5714 8.57143 68.5714C7.6 68.5714 6.78571 68.2429 6.12857 67.5857C5.47143 66.9286 5.14286 66.1143 5.14286 65.1429ZM17.1429 13.7143H30.8571V3.42857H17.1429V13.7143ZM11.1429 54.8571H14.5714V24H11.1429V54.8571ZM22.2857 54.8571H25.7143V24H22.2857V54.8571ZM33.4286 54.8571H36.8571V24H33.4286V54.8571Z" fill="white"/>
</svg>
