<?xml version="1.0" encoding="UTF-8"?>
<svg id="Calque_1" data-name="Calque 1" xmlns="http://www.w3.org/2000/svg" viewBox="0 0 370.87 269.38">
  <defs>
    <style>
      .cls-1 {
        fill: #e73742;
      }

      .cls-2 {
        fill: #1d1d1b;
      }
    </style>
  </defs>
  <circle class="cls-1" cx="186.82" cy="110.9" r="106.11"/>
  <path class="cls-2" d="M289.78,85.15c15.43-1.84,30.86-4.1,46.28-6.8-.91-6.23-1.36-9.34-2.26-15.57,12.41-2.28,24.78-4.86,37.07-7.72-1.56-8.46-2.34-12.69-3.89-21.15-31.17,6.97-62.45,12.09-93.79,15.34-28.77,2.98-57.57,4.39-86.37,4.23-28.8,.16-57.6-1.25-86.37-4.23-31.34-3.25-62.62-8.37-93.79-15.34-1.55,8.46-2.33,12.69-3.89,21.15,12.29,2.86,24.66,5.44,37.07,7.72-.9,6.23-1.35,9.34-2.26,15.57,15.42,2.7,30.85,4.96,46.28,6.8,10.33,1.23,20.67,2.26,31.01,3.11v22.64H48.95v15.78H114.87v14.64c-4.51,2.58-12.39,7.09-14.07,8.06h.07v120h28V126.68h115.9v142.7h28v-120h.07c-1.68-.97-9.56-5.48-14.07-8.06v-14.64h65.92v-15.78h-65.92v-22.64c10.34-.85,20.68-1.88,31.01-3.11Zm-45.01,25.75h-115.9v-21.62c19.32,1.24,38.64,1.82,57.95,1.72,19.31,.1,38.63-.48,57.95-1.72v21.62Z"/>
</svg>