<?xml version="1.0" encoding="UTF-8"?>
<svg id="Calque_1" data-name="Calque 1" xmlns="http://www.w3.org/2000/svg" viewBox="0 0 370.87 269.38">
  <defs>
    <style>
      .cls-1 {
        fill: #fff;
      }

      .cls-2 {
        fill: #a8a8a8;
      }
    </style>
  </defs>
  <path class="cls-2" d="M273.19,49.25c-28.77,2.98-57.57,4.39-86.37,4.23-28.8,.16-57.6-1.25-86.37-4.23C119.69,22.34,151.21,4.79,186.82,4.79s67.13,17.55,86.37,44.46Z"/>
  <path class="cls-2" d="M244.77,89.28v21.62h-115.9v-21.62c19.32,1.24,38.64,1.82,57.95,1.72,19.31,.1,38.63-.48,57.95-1.72Z"/>
  <path class="cls-2" d="M128.87,110.9v88.89c-4.97-3.24-9.66-6.89-14-10.91-5.17-4.76-9.86-10.04-14-15.75-9.76-13.45-16.43-29.28-18.99-46.45-.77-5.15-1.17-10.42-1.17-15.78,0-8.88,1.09-17.51,3.15-25.75,10.33,1.23,20.67,2.26,31.01,3.11v22.64h14Z"/>
  <rect class="cls-1" x="48.95" y="110.9" width="79.92" height="15.78"/>
  <path class="cls-1" d="M100.45,49.25c-7.63,10.67-13.33,22.8-16.59,35.9-15.43-1.84-30.86-4.1-46.28-6.8,.91-6.23,1.36-9.34,2.26-15.57-12.41-2.28-24.78-4.86-37.07-7.72,1.56-8.46,2.34-12.69,3.89-21.15,31.17,6.97,62.45,12.09,93.79,15.34Z"/>
  <rect class="cls-1" x="114.87" y="110.9" width="14" height="158.48"/>
  <rect class="cls-1" x="100.86" y="149.38" width="14" height="120"/>
  <path class="cls-1" d="M128.87,145.94v3.44h-28.07c1.68-.97,9.56-5.48,14.07-8.06,1.43-.82,2.51-1.44,2.97-1.7l11.03,6.32Z"/>
  <path class="cls-2" d="M244.77,126.68v73.11c-16.66,10.89-36.57,17.22-57.95,17.22s-41.29-6.33-57.95-17.22V126.68h115.9Z"/>
  <path class="cls-2" d="M292.93,110.9c0,5.36-.4,10.63-1.17,15.78-2.56,17.17-9.23,33-18.99,46.45-4.14,5.71-8.83,10.99-14,15.75-4.34,4.02-9.03,7.67-14,10.91V110.9h14v-22.64c10.34-.85,20.68-1.88,31.01-3.11,2.06,8.24,3.15,16.87,3.15,25.75Z"/>
  <g>
    <rect class="cls-1" x="128.87" y="110.9" width="115.9" height="15.78"/>
    <rect class="cls-1" x="244.77" y="110.9" width="79.92" height="15.78"/>
  </g>
  <g>
    <path class="cls-1" d="M289.78,85.15c-10.33,1.23-20.67,2.26-31.01,3.11v22.64h-14v-21.62c-19.32,1.24-38.64,1.82-57.95,1.72-19.31,.1-38.63-.48-57.95-1.72v21.62h-14v-22.64c-10.34-.85-20.68-1.88-31.01-3.11,3.26-13.1,8.96-25.23,16.59-35.9,28.77,2.98,57.57,4.39,86.37,4.23,28.8,.16,57.6-1.25,86.37-4.23,7.63,10.67,13.33,22.8,16.59,35.9Z"/>
    <path class="cls-1" d="M333.8,62.78c.9,6.23,1.35,9.34,2.26,15.57-15.42,2.7-30.85,4.96-46.28,6.8-3.26-13.1-8.96-25.23-16.59-35.9,31.34-3.25,62.62-8.37,93.79-15.34,1.55,8.46,2.33,12.69,3.89,21.15-12.29,2.86-24.66,5.44-37.07,7.72Z"/>
  </g>
  <rect class="cls-1" x="244.77" y="110.9" width="14" height="158.48"/>
  <rect class="cls-1" x="258.77" y="149.38" width="14" height="120"/>
  <path class="cls-1" d="M272.84,149.38h-28.07v-3.44l11.03-6.32c.46,.26,1.54,.88,2.97,1.7,4.51,2.58,12.39,7.09,14.07,8.06Z"/>
</svg>