<svg width="636" height="637" viewBox="0 0 636 637" fill="none" xmlns="http://www.w3.org/2000/svg">
<rect x="0.5" y="0.5" width="635" height="636" rx="317.5" fill="url(#paint0_linear_314_337)"/>
<path d="M307.022 7.29771C316.756 6.96151 323.055 12.1232 323.351 20.7062L313.498 21.0621C313.38 17.8781 310.932 15.9994 307.2 16.1378C303.172 16.2762 300.664 18.2143 300.763 21.2203C300.861 23.9693 302.323 25.2745 305.521 25.8283L312.353 26.9951C320.488 28.3596 324.477 32.0776 324.734 39.2565C325.05 48.0175 318.395 53.9504 307.989 54.3261C297.9 54.6821 291.166 49.4611 290.85 40.9573L300.703 40.6013C300.822 43.9039 303.33 45.6641 307.733 45.5058C312.195 45.3476 314.94 43.4689 314.841 40.6013C314.762 38.0897 313.538 36.8437 310.517 36.3296L303.547 35.1627C295.412 33.7982 291.087 29.3485 290.831 21.9323C290.535 13.7251 297.248 7.65368 306.963 7.31748L307.022 7.29771Z" fill="black"/>
<path d="M349.573 55.9277C336.56 54.3654 328.761 43.8047 330.4 30.0601C332.039 16.2957 342.168 7.83135 355.18 9.37392C368.252 10.9363 376.111 21.5167 374.472 35.2613C372.833 49.006 362.644 57.4901 349.573 55.9277V55.9277ZM354.114 18.8666C346.828 17.9965 341.832 22.6439 340.806 31.2269C339.779 39.8692 343.531 45.5648 350.817 46.435C358.043 47.3052 363.059 42.5193 364.066 34.0154C365.093 25.4324 361.321 19.7368 354.094 18.8666H354.114Z" fill="black"/>
<path d="M380.889 36.7843C384.996 23.2374 396.31 16.9287 409.244 20.8642C420.084 24.1669 425.988 32.7499 424.388 42.8952L414.377 39.8496C414.397 35.123 411.455 31.5237 406.242 29.9416C399.213 27.8057 393.428 31.4842 390.92 39.7705C388.452 47.9184 391.236 54.3458 398.206 56.4618C403.537 58.0835 408.256 56.6398 410.725 52.7043L420.558 55.6906C416.095 64.9064 406.084 68.8419 395.244 65.559C382.232 61.6037 376.703 50.5091 380.869 36.7843H380.889Z" fill="black"/>
<path d="M429.66 77.9392L420.597 73.9246L438.94 32.4336L448.003 36.4482L429.66 77.9392Z" fill="black"/>
<path d="M437.282 81.301L459.752 41.9062L484.73 56.2046L480.169 64.1943L463.8 54.8203L459.397 62.5331L473.91 70.8392L469.605 78.3938L455.093 70.0877L450.452 78.2356L466.821 87.6097L462.26 95.5994L437.282 81.301Z" fill="black"/>
<path d="M492.707 61.3069L520.963 83.0412L515.375 90.3387L505.186 82.4875L483.17 111.163L475.312 105.112L497.308 76.4359L487.119 68.5846L492.707 61.2871V61.3069Z" fill="black"/>
<path d="M496.519 122.199L528.723 90.2795L548.962 110.768L542.427 117.235L529.158 103.807L522.859 110.056L534.607 121.961L528.427 128.092L516.679 116.187L510.024 122.792L523.293 136.22L516.758 142.687L496.519 122.199V122.199Z" fill="black"/>
<path d="M515.257 153.663L517.883 151.547C520.233 153.584 522.898 154.257 524.972 152.833C524.478 152.595 523.984 152.2 523.57 151.686C521.753 149.451 522.049 146.385 524.142 144.685C526.768 142.569 529.829 142.766 531.823 145.238C534.054 148.007 533.304 151.765 530.026 154.415C525.465 158.113 519.364 157.777 515.257 153.683V153.663Z" fill="black"/>
<path d="M541.222 174.923L580.752 152.773L589.302 168.08C594.673 177.711 593.093 185.78 584.918 190.348C579.784 193.216 574.927 193.058 570.247 189.933L558.42 205.695L553.128 196.222L563.652 182.537L559.921 175.852L546.079 183.605L541.241 174.943L541.222 174.923ZM567.483 171.581L571.156 178.166C573.269 181.963 576.428 183.091 579.784 181.192C583.102 179.333 583.753 176.228 581.601 172.372L577.889 165.747L567.463 171.581H567.483Z" fill="black"/>
<path d="M560.395 210.777L602.689 194.541L612.977 221.437L604.407 224.72L597.654 207.079L589.361 210.263L595.344 225.887L587.229 229.011L581.246 213.388L572.498 216.75L579.251 234.391L570.682 237.673L560.395 210.777V210.777Z" fill="black"/>
<path d="M583.773 251.754L587.959 269.158L579.034 271.313L572.538 244.259L616.57 233.659L618.881 243.31L583.773 251.774V251.754Z" fill="black"/>
<path d="M580.89 286.343L579.508 276.515L624.369 270.226L625.752 280.054L580.89 286.343V286.343Z" fill="black"/>
<path d="M604.743 302.006C595.62 302.145 591.177 307.386 591.296 314.604C591.414 322.08 595.502 325.323 600.221 325.679L600.023 313.675L608.711 313.536L609.067 334.855L583.062 335.27L582.924 326.747L587.011 326.134C584.089 323.721 582.114 318.856 582.035 313.457C581.838 300.76 590.98 291.723 604.881 291.505C618.525 291.288 628.536 300.246 628.753 314.288C628.931 325.145 622.691 333.57 612.917 334.776L612.74 324.354C617.498 323.108 619.512 318.915 619.433 314.189C619.295 305.981 613.47 301.848 604.723 301.987L604.743 302.006Z" fill="black"/>
<path d="M580.713 352.021L581.759 342.153L626.799 346.978L625.752 356.847L580.713 352.021Z" fill="black"/>
<path d="M575.046 379.154C578.047 366.379 589.401 359.793 602.867 362.958C616.333 366.122 623.619 377.157 620.618 389.933C617.597 402.768 606.243 409.412 592.757 406.248C579.271 403.084 572.025 391.989 575.026 379.154H575.046ZM611.318 387.817C612.996 380.657 608.949 375.16 600.537 373.182C592.066 371.185 586.004 374.289 584.326 381.449C582.667 388.548 586.834 394.066 595.186 396.044C603.578 398.021 609.659 394.916 611.338 387.817H611.318Z" fill="black"/>
<path d="M568.826 405.853L610.41 423.849L606.52 432.847L572.479 438.958L598.938 450.409L595.048 459.407L553.464 441.411L557.354 432.412L591.336 426.282L564.916 414.851L568.806 405.853H568.826Z" fill="black"/>
<path d="M541.4 461.563L578.225 487.984L561.481 511.419L554.017 506.06L564.995 490.714L557.769 485.532L548.034 499.138L540.965 494.076L550.7 480.469L543.078 475.011L532.1 490.358L524.636 484.998L541.38 461.563H541.4Z" fill="black"/>
<path d="M555.636 518.796L531.172 544.743L524.498 538.434L533.324 529.08L507.062 504.241L513.875 497.022L540.136 521.861L548.962 512.507L555.636 518.816V518.796Z" fill="black"/>
<path d="M483.447 544.624L474.759 532.303L482.875 526.588L508.978 563.669L493.972 574.269C486.409 579.609 477.859 578.204 472.647 570.788C467.434 563.372 468.994 554.848 476.536 549.509L483.447 544.624V544.624ZM495.788 562.166L488.522 551.842L483.428 555.442C479.518 558.191 478.768 561.276 481.216 564.737C483.645 568.198 486.804 568.514 490.714 565.765L495.808 562.166H495.788Z" fill="black"/>
<path d="M433.451 556.411C445.239 550.676 457.501 555.323 463.563 567.782C469.625 580.242 465.676 592.859 453.888 598.614C442.06 604.389 429.72 599.761 423.677 587.282C417.616 574.823 421.624 562.166 433.451 556.411V556.411ZM449.662 590.031C456.257 586.807 457.955 580.202 454.184 572.43C450.373 564.598 444.134 561.849 437.539 565.073C430.983 568.257 429.364 575.001 433.096 582.714C436.867 590.486 443.107 593.235 449.662 590.051V590.031Z" fill="black"/>
<path d="M401.72 579.846L384.66 585.166L381.936 576.385L408.473 568.119L421.92 611.449L412.442 614.396L401.72 579.846V579.846Z" fill="black"/>
<path d="M366.988 579.213L376.703 577.196L385.865 621.634L376.15 623.651L366.988 579.213Z" fill="black"/>
<path d="M366.87 625.747L331.407 629.287L330.499 620.131L343.294 618.845L339.7 582.852L349.573 581.863L353.167 617.856L365.962 616.571L366.87 625.727V625.747Z" fill="black"/>
<path d="M312.235 583.623L322.147 583.782L321.416 629.129L311.504 628.971L312.235 583.623Z" fill="black"/>
<path d="M273.474 582.061C276.772 580.815 280.543 580.36 284.552 580.874C297.544 582.516 305.284 593.136 303.547 606.9C301.809 620.645 291.62 629.07 278.608 627.408C265.557 625.747 257.757 615.127 259.495 601.383C260.265 595.232 262.772 590.11 266.425 586.57L262.259 580.419L269.15 575.732L273.474 582.081V582.061ZM279.753 617.896C287.04 618.825 292.075 614.198 293.161 605.615C294.247 596.972 290.534 591.257 283.248 590.327C281.787 590.149 280.484 590.169 279.22 590.426L284.275 597.862L277.384 602.549L272.388 595.232C271.164 597.17 270.276 599.662 269.901 602.648C268.815 611.231 272.546 616.947 279.773 617.876L279.753 617.896Z" fill="black"/>
<path d="M244.329 620.803L234.852 617.876L242.987 591.455C244.665 586.016 242.612 582.1 237.28 580.459C231.91 578.798 227.901 580.953 226.262 586.293L218.127 612.714L208.649 609.788L216.982 582.733C220.161 572.43 229.224 567.921 240.104 571.283C250.924 574.625 255.841 583.406 252.642 593.769L244.31 620.823L244.329 620.803Z" fill="black"/>
<path d="M215.127 563.333L195.401 604.171L169.495 591.613L173.503 583.327L190.485 591.554L194.355 583.544L179.309 576.247L183.1 568.415L198.146 575.713L202.233 567.268L185.252 559.041L189.26 550.755L215.166 563.313L215.127 563.333Z" fill="black"/>
<path d="M158.852 556.134L141.91 543.813L146.807 537.07L163.749 549.39L158.852 556.134Z" fill="black"/>
<path d="M121.77 529.871C111.403 539.482 98.4503 539.205 89.2687 529.258C81.568 520.932 80.7979 510.53 87.3139 502.579L94.4223 510.272C92.0133 514.346 92.7439 518.935 96.4363 522.929C101.432 528.328 108.284 528.071 114.622 522.198C120.861 516.403 121.691 509.462 116.754 504.102C112.963 500.008 108.165 498.861 104.058 501.017L97.0682 493.462C105.559 487.767 116.201 489.428 123.882 497.754C133.104 507.741 132.294 520.121 121.77 529.871V529.871Z" fill="black"/>
<path d="M68.2601 503.548L62.8498 495.223L85.9717 480.133C90.7501 477.028 91.6584 472.697 88.6176 468.03C85.5373 463.303 81.0946 462.413 76.4149 465.459L53.2931 480.548L47.8828 472.222L71.5773 456.757C80.601 450.864 90.4539 453.217 96.6737 462.769C102.854 472.262 101.037 482.17 91.9546 488.083L68.2601 503.548V503.548Z" fill="black"/>
<path d="M82.4965 440.639L41.2483 459.427L29.3418 433.184L37.6941 429.387L45.4936 446.572L53.5694 442.894L46.6585 427.646L54.5764 424.047L61.4873 439.295L70.0174 435.418L62.2179 418.233L70.5702 414.436L82.4767 440.679L82.4965 440.639Z" fill="black"/>
<path d="M53.885 416.018L51.1207 406.861L54.1615 405.932C56.4519 405.24 58.1698 403.301 57.0641 399.663C55.9978 396.142 53.7666 395.351 50.8442 396.241L20.2783 405.516L17.3955 396.004L48.5538 386.551C55.9978 384.296 63.1654 388.133 65.8113 396.874C68.6941 406.426 64.4291 412.794 56.9258 415.068L53.885 415.998V416.018Z" fill="black"/>
<path d="M8.70793 350.637C7.70091 340.946 12.4398 334.282 20.9698 333.411L21.9769 343.221C18.8176 343.557 17.0997 346.128 17.4946 349.846C17.9093 353.88 20.0023 356.233 22.9839 355.937C25.7285 355.66 26.9132 354.117 27.2686 350.874L27.9795 343.952C28.789 335.725 32.2247 331.493 39.3528 330.761C48.0606 329.852 54.4186 336.101 55.5046 346.464C56.5511 356.53 51.7924 363.61 43.3414 364.48L42.3344 354.671C45.6319 354.335 47.1918 351.705 46.7376 347.314C46.2835 342.865 44.2299 340.234 41.3669 340.531C38.8789 340.788 37.714 342.073 37.4178 345.139L36.7267 352.179C35.9171 360.406 31.7706 365.014 24.4055 365.785C16.2507 366.636 9.75444 360.347 8.74742 350.637H8.70793Z" fill="black"/>
<path d="M7.52268 326.905L8.58893 291.228L17.7705 291.505L17.3756 304.38L53.4703 305.467L53.1741 315.395L17.0795 314.307L16.6845 327.182L7.50293 326.905H7.52268Z" fill="black"/>
<path d="M54.4184 288.203L9.81348 280.312L12.8543 263.047C14.7696 252.17 21.1079 246.949 30.329 248.571C36.1144 249.599 39.787 252.803 41.4456 258.202L60.5592 253.475L58.6834 264.154L41.88 268.09L40.5571 275.645L56.1757 278.413L54.4579 288.203H54.4184ZM31.9678 274.141L33.271 266.706C34.0214 262.414 32.2838 259.566 28.4926 258.894C24.7608 258.241 22.2926 260.219 21.5225 264.57L20.1996 272.065L31.9481 274.141H31.9678Z" fill="black"/>
<path d="M60.6775 252.308L23.0625 222.287L26.202 213.131L74.2821 212.597L70.8662 222.564L60.796 222.485L56.0571 236.348L64.0342 242.519L60.6775 252.328V252.308ZM49.1067 230.89L52.0093 222.426L41.8009 222.367C40.2015 222.327 38.3455 222.287 37.2397 222.09C38.1677 222.604 39.6289 223.632 41.0111 224.68L49.1067 230.89V230.89Z" fill="black"/>
<path d="M41.7224 175.516C46.1849 166.854 53.7868 163.888 61.4086 167.823L56.8869 176.584C54.0633 175.121 51.2199 176.347 49.5021 179.669C47.646 183.269 48.1002 186.393 50.7658 187.778C53.2142 189.043 55.0505 188.41 57.1238 185.879L61.4876 180.48C66.6609 174.053 71.8539 172.392 78.2317 175.694C86.0114 179.729 87.9267 188.43 83.1483 197.705C78.5081 206.684 70.6692 210.006 63.1067 206.11L67.6284 197.349C70.5704 198.872 73.3151 197.527 75.3488 193.612C77.4024 189.637 77.1259 186.314 74.559 184.989C72.3278 183.842 70.6494 184.277 68.7341 186.67L64.3112 192.168C59.1379 198.595 53.1352 200.197 46.56 196.776C39.274 192.999 37.2797 184.178 41.7619 175.516H41.7224Z" fill="black"/>
<path d="M56.1555 151.369L67.0944 135.983C72.3862 128.547 79.4748 126.826 85.7934 131.335C89.7425 134.144 91.3418 138 90.4138 142.371C94.2049 139.582 98.4304 139.661 102.616 142.648C109.152 147.295 109.666 154.296 103.979 162.286L93.0399 177.672L56.1357 151.369H56.1555ZM68.99 148.323L77.0264 154.039L81.6073 147.592C83.6609 144.704 83.3647 142.074 80.7188 140.176C78.1321 138.336 75.6837 138.91 73.5907 141.857L69.0098 148.304L68.99 148.323ZM83.7991 158.884L91.717 164.54L96.5744 157.698C98.7069 154.691 98.4502 152.2 95.7056 150.242C93.2176 148.462 90.7297 149.095 88.6367 152.041L83.7793 158.884H83.7991Z" fill="black"/>
<path d="M130.241 132.562C121.02 141.896 107.909 141.56 98.0756 131.81C88.2424 122.06 87.7883 108.85 97.0094 99.5151C106.27 90.1411 119.42 90.418 129.254 100.168C139.087 109.918 139.502 123.168 130.241 132.542V132.562ZM103.822 106.219C98.6482 111.44 99.2603 118.243 105.381 124.335C111.562 130.465 118.354 130.979 123.527 125.759C128.642 120.577 127.97 113.675 121.869 107.643C115.728 101.572 108.936 101.038 103.822 106.219V106.219Z" fill="black"/>
<path d="M123.034 76.2978L131.11 70.5429L147.124 93.0683C150.421 97.7157 154.785 98.4475 159.326 95.2041C163.907 91.9212 164.618 87.432 161.4 82.8834L145.386 60.358L153.462 54.603L169.87 77.6822C176.13 86.4629 174.195 96.4303 164.914 103.055C155.693 109.641 145.741 108.237 139.462 99.3967L123.054 76.3176L123.034 76.2978Z" fill="black"/>
<path d="M186.259 87.8473L166.197 47.1671L181.895 39.3949C191.768 34.5101 199.745 36.5273 203.891 44.9323C206.498 50.2126 206.083 55.0579 202.726 59.6065L217.832 72.2436L208.117 77.0493L195.006 65.8163L188.134 69.2178L195.164 83.4569L186.278 87.8473H186.259ZM184.284 61.4061L191.037 58.0639C194.927 56.1258 196.21 53.0407 194.492 49.5798C192.814 46.1782 189.754 45.3674 185.804 47.3253L178.992 50.6873L184.284 61.4061Z" fill="black"/>
<path d="M223.854 46.6525C226.48 55.3937 232.7 58.2613 239.63 56.1848C246.778 54.0291 248.772 49.2037 247.825 44.5562L236.333 48.0171L233.825 39.6912L254.222 33.5407L261.706 58.4788L253.571 60.9311L251.853 57.1538C250.332 60.6147 246.186 63.858 241.032 65.4006C228.908 69.0592 217.733 62.6912 213.724 49.3619C209.795 36.2699 215.679 24.1864 229.106 20.152C239.472 17.0274 249.286 20.7256 253.097 29.8227L243.125 32.8288C240.637 28.5768 236.056 27.7858 231.535 29.1503C223.676 31.5235 221.287 38.2475 223.814 46.6525H223.854Z" fill="black"/>
<path d="M577.365 318.5C577.365 461.971 461.242 578.274 318 578.274C174.759 578.274 58.6357 461.971 58.6357 318.5C58.6357 175.029 174.759 58.7261 318 58.7261C461.242 58.7261 577.365 175.029 577.365 318.5Z" stroke="black" stroke-width="2"/>
<rect x="0.5" y="0.5" width="635" height="636" rx="317.5" stroke="black"/>
<defs>
<linearGradient id="paint0_linear_314_337" x1="44.902" y1="229.897" x2="574.644" y2="478.284" gradientUnits="userSpaceOnUse">
<stop stop-color="#E89DB6"/>
<stop offset="0.442708" stop-color="#F58A89"/>
<stop offset="1" stop-color="#F4A04A"/>
</linearGradient>
</defs>
</svg>
